<?xml version="1.0" encoding="UTF-8" standalone="no"?>
<!-- Created with Inkscape (http://www.inkscape.org/) -->
<svg width="1024px" height="1024px" viewBox="0 0 63.150223 63.150219" version="1.1" id="svg1" xml:space="preserve" xmlns:xlink="http://www.w3.org/1999/xlink" xmlns="http://www.w3.org/2000/svg" xmlns:svg="http://www.w3.org/2000/svg">
  <defs>
    <linearGradient id="color">
      <stop style="stop-color:#4fd0ab;stop-opacity:1;" offset="0" id="stop8" />
      <stop style="stop-color:#149eb3;stop-opacity:1" offset="1" id="stop9" />
    </linearGradient>
    <linearGradient xlink:href="#color" id="color2" x1="51.177483" y1="29.287758" x2="78.225151" y2="60.012894" gradientUnits="userSpaceOnUse" gradientTransform="translate(-10.363374,-8.229738)" />
  </defs>
  <g id="layer1" transform="translate(-36.877796,-17.775948)">
    <rect style="display:inline;fill:url(#color2);fill-opacity:1;stroke-width:0.265;stroke-dasharray:none" id="rect3" width="63.150219" height="63.150219" x="36.877796" y="17.775948" />
    <path style="fill:#ffffff;stroke-width:0.264583" d="m 61.761131,54.712514 -0.0381,4.76258 c 0,0 0.457208,4.762579 5.181687,4.838782 3.771963,0.152402 4.800679,-0.609611 7.886832,-3.352856 -0.571511,-0.609611 -1.219221,-1.409724 -1.219221,-1.409724 0,0 -3.390958,2.514643 -5.448393,0.685811 -0.838213,-0.762013 -0.68581,-2.019335 -0.68581,-2.019335 l -0.0381,-11.773095 c 0,0 4.292817,0.130759 4.515083,0.130759 0.222263,0 0.646588,0.02694 0.673528,-0.289618 0.02694,-0.316558 0.374081,-2.765366 0.374081,-2.765366 l -5.591267,0.0762 -0.0095,-4.800682 -5.657945,2.32414 0.02857,2.238412 -2.876598,0.885841 0.40958,1.933606 2.447968,0.0095 z" id="path1" />
    <rect style="fill:#ffffff;fill-opacity:1;stroke-width:0.264426;stroke-dasharray:none" id="rect1" width="12.405025" height="1.8288306" x="70.583748" y="48.793449" ry="0.40000001" rx="0.40000001" />
    <rect style="fill:#ffffff;fill-opacity:1;stroke-width:0.264426;stroke-dasharray:none" id="rect1-5" width="12.405025" height="1.8288306" x="70.583748" y="52.486042" ry="0.40000001" rx="0.40000001" />
    <rect style="fill:#ffffff;fill-opacity:1;stroke-width:0.215192;stroke-dasharray:none" id="rect1-2" width="8.2156649" height="1.8288306" x="70.583748" y="56.178635" ry="0.40000001" rx="0.40000001" />
    <path id="rect2" style="fill:#ffffff;fill-opacity:1;stroke-width:0.263476;stroke-dasharray:none" d="m 50.496994,30.252151 c -1.7174,0 -3.099553,1.382152 -3.099553,3.099552 v 31.596004 c 0,1.7174 1.382153,3.10007 3.099553,3.10007 h 36.015373 c 1.7174,0 3.100069,-1.38267 3.100069,-3.10007 V 33.351703 c 0,-1.7174 -1.382669,-3.099552 -3.100069,-3.099552 z m 1.010274,2.591056 a 0.98335451,0.98335451 0 0 1 0.983403,0.983403 0.98335451,0.98335451 0 0 1 -0.983403,0.983402 0.98335451,0.98335451 0 0 1 -0.983402,-0.983402 0.98335451,0.98335451 0 0 1 0.983402,-0.983403 z m 3.620451,0 a 0.98335451,0.98335451 0 0 1 0.983402,0.983403 0.98335451,0.98335451 0 0 1 -0.983402,0.983402 0.98335451,0.98335451 0 0 1 -0.983403,-0.983402 0.98335451,0.98335451 0 0 1 0.983403,-0.983403 z m 3.620451,0 a 0.98335451,0.98335451 0 0 1 0.983402,0.983403 0.98335451,0.98335451 0 0 1 -0.983402,0.983402 0.98335451,0.98335451 0 0 1 -0.983403,-0.983402 0.98335451,0.98335451 0 0 1 0.983403,-0.983403 z m -9.948747,4.295862 h 39.388293 v 27.474809 a 1.9990383,1.9990383 0 0 1 -1.999361,1.998844 H 50.669076 a 1.8697206,1.8697206 0 0 1 -1.869653,-1.869653 z" />
  </g>
</svg>
